<svg xmlns="http://www.w3.org/2000/svg" data-name="Layer 1" viewBox="0 0 100 125" x="0px" y="0px"><title>63</title><g data-name="Group"><path data-name="Compound Path" d="M45.6,83.4a10,10,0,1,0-10,10A10.1,10.1,0,0,0,45.6,83.4Zm-14.1,0a4,4,0,1,1,4,4A4,4,0,0,1,31.5,83.4Z"/><path data-name="Compound Path" d="M82.6,83.4a10,10,0,1,0-10,10A10.1,10.1,0,0,0,82.6,83.4Zm-14.1,0a4,4,0,1,1,4,4A4,4,0,0,1,68.6,83.4Z"/><path data-name="Compound Path" d="M25.5,14.1a9,9,0,0,0-8.9-7.5H8.7v6h7.9a3,3,0,0,1,3,2.5l7.2,44A13,13,0,0,0,39.6,70H83.8V64H39.6a7,7,0,0,1-6.9-5.9v-.5H74.1A13,13,0,0,0,86.9,46.9l4.4-25.5H26.7ZM84.2,27.4,81,45.8a7,7,0,0,1-6.9,5.8H31.6l-4-24.3Z"/><path data-name="Path" d="M51.5,42.1h2.1v2.1a3,3,0,0,0,6,0V42.1h2.1a3,3,0,0,0,0-6H59.6V34a3,3,0,0,0-6,0v2.1H51.5a3,3,0,0,0,0,6Z"/></g></svg>
