<svg xmlns="http://www.w3.org/2000/svg" xmlns:xlink="http://www.w3.org/1999/xlink" xml:space="preserve" version="1.1" style="shape-rendering:geometricPrecision;text-rendering:geometricPrecision;image-rendering:optimizeQuality;" viewBox="0 0 60000 75000" x="0px" y="0px" fill-rule="evenodd" clip-rule="evenodd"><defs><style type="text/css">

    .fil0 {fill:black;fill-rule:nonzero}

  </style></defs><g><path class="fil0" d="M2310 42280c834,-4857 5751,-12766 13360,-18323 5506,-4021 12425,-6827 20236,-6384 1644,-1536 3469,-2969 5469,-3811 2101,-885 4377,-1114 6810,-132 774,313 1427,663 1964,1070 745,-183 1362,-492 1749,-1015 367,-496 546,-1207 458,-2217 -136,-470 -93,-908 164,-1245 326,-428 904,-566 1574,-444 561,102 1207,392 1808,844l0 0c17,12 34,24 49,38 595,459 1044,1003 1290,1515 420,872 139,1749 -311,2560 -581,1045 -1581,1907 -2522,2717 -861,742 -1666,1435 -1932,2107 1439,7813 -4100,11384 -7688,13636 -1172,3479 -3120,6507 -5397,8997 -2735,2991 -5947,5206 -8859,6495 -5069,2243 -10010,2160 -14733,807 -4685,-1342 -9144,-3933 -13296,-6736l0 0c-155,-105 -231,-294 -192,-476zm25536 -20939c1272,132 950,829 1796,1065 22,-60 209,-1077 -23,-1466 -185,-78 -377,-120 -567,-126 -284,-8 -570,65 -830,221 -133,80 -259,182 -376,306zm-12035 4573c488,-283 1030,-415 1572,-399 538,16 1075,177 1556,478 810,508 1459,1409 1679,2677l-1 0c5,30 7,61 6,93 -9,252 -221,450 -473,441 -753,-28 -1371,144 -1939,442 -588,309 -1144,763 -1743,1273 -29,26 -62,49 -99,67 -226,114 -501,23 -615,-202 -156,-308 -467,-632 -759,-936 -378,-395 -731,-762 -846,-1176 -24,-74 -30,-155 -13,-236 229,-1087 722,-1968 1674,-2521zm212 960c1014,-19 1026,988 1805,1054 278,-562 155,-1014 -42,-1442 -517,-123 -1055,-48 -1517,220 -85,49 -167,105 -247,168zm-1799 2892c-4,21 -9,43 -13,64 130,57 258,124 381,201 727,456 1310,1264 1507,2399l-1 0c5,30 7,61 6,93 -9,252 -221,450 -473,441 -690,-26 -1324,58 -1917,234 -584,174 -1128,440 -1646,782 -138,104 -329,125 -492,39 -401,-213 -685,-450 -892,-715 -204,-262 -325,-545 -403,-854 -22,-72 -27,-150 -11,-229 125,-592 346,-1082 633,-1472l0 -125c32,0 64,1 95,1 228,-279 491,-501 775,-666 439,-255 928,-373 1416,-359 195,6 391,33 583,81l2 -9 448 93zm-2147 1089c902,8 729,927 1312,1166 203,-369 435,-963 232,-1435 -271,-257 -1093,-191 -1544,268zm6699 3950c58,94 107,180 148,259 388,747 511,1605 339,2412 -162,761 -583,1475 -1286,2006 -6,4 -11,8 -17,12 -359,275 -772,524 -1276,651 -518,131 -1118,130 -1828,-109 -236,-79 -365,-333 -291,-570l-1 0c229,-736 152,-1662 -313,-2485 -396,-701 -1076,-1326 -2091,-1697 -238,-86 -360,-348 -274,-586 39,-108 114,-192 207,-244 200,-123 400,-237 596,-339 969,-504 2113,-885 3189,-879 1111,106 1669,144 2900,1571zm-3873 -547c1179,303 621,1134 1410,1594 258,-228 509,-1258 245,-1625 -516,-358 -1263,-155 -1655,30zm3963 -3177c1615,110 1122,1200 2128,1714 253,-265 285,-1040 150,-1638 -246,-1095 -1670,-590 -2278,-77zm15935 -8413c1053,333 729,1651 1654,1923 415,-506 456,-1239 207,-1692 -413,-750 -1217,-394 -1861,-231zm-4540 2566c1413,298 1158,1916 2214,2255 113,-351 270,-2008 -102,-2429 -461,-563 -1625,-55 -2112,173zm-5546 3129c1433,268 978,1529 1908,2082 264,-478 619,-1916 -71,-2567 -513,-227 -1478,154 -1837,486zm-3983 -3977c1378,-409 1578,547 2477,541 208,-584 327,-1063 80,-1636 -46,-4 -92,-8 -137,-10 -554,-29 -1100,77 -1566,331 -330,180 -624,436 -854,773zm-3241 16706c153,-495 551,-978 1024,-1323 38,-31 82,-56 130,-73 375,-136 796,-336 1179,-606 296,-209 567,-460 768,-754l1 1c111,-162 318,-240 515,-178 89,28 163,54 221,76 565,217 1164,593 1559,1137 416,572 607,1310 319,2218 -25,78 -46,140 -64,187l-1 0c-15,38 -35,75 -60,110 -729,983 -2025,1027 -3228,1068 -327,11 -645,22 -943,55l0 0c-60,7 -123,1 -185,-18 -516,-160 -858,-401 -1064,-687 -136,-190 -212,-395 -236,-607 -23,-200 2,-404 64,-604zm16653 -7132c240,363 987,963 1368,823 550,82 2316,-914 2625,-2208 137,-574 -71,-1422 -581,-1768 -307,-208 -451,-352 -952,-371 -288,-11 -483,57 -644,301 -411,627 -1199,1199 -1874,1669 -375,261 -157,1228 59,1554zm-4753 4839c-186,-399 -242,-777 -298,-1155 -89,-599 -178,-1198 -1000,-1733 -212,-138 -272,-421 -134,-633 47,-73 112,-128 185,-163 147,-78 309,-158 476,-240 741,-364 1619,-796 1914,-1545 79,-203 288,-318 495,-286l0 0c1074,165 1967,834 2488,1670 194,312 338,651 422,1000 85,357 106,718 53,1067 -105,684 -483,1318 -1208,1770 -554,345 -1191,373 -1828,401 -359,16 -719,31 -1024,114 -224,60 -454,-58 -541,-266zm-4897 2449c-172,-398 -223,-782 -275,-1165 -81,-603 -162,-1205 -906,-1738 -206,-147 -253,-434 -106,-640 44,-61 100,-108 162,-140 133,-78 278,-156 428,-238 668,-362 1459,-790 1727,-1540 79,-222 313,-345 537,-292 870,156 1605,703 2089,1407 242,352 422,745 524,1148 105,411 130,837 61,1247 -110,650 -453,1251 -1088,1687 -517,355 -1105,383 -1693,411 -321,15 -643,31 -909,110 -225,67 -461,-47 -552,-258l0 0zm5893 -20931c707,457 1278,1286 1471,2457 7,34 9,69 8,106 -10,252 -223,449 -475,439 -610,-25 -1111,126 -1572,387 -485,274 -950,684 -1451,1144l-1 -1c-34,31 -72,57 -116,78 -229,107 -501,8 -607,-220 -126,-268 -386,-560 -630,-833 -316,-355 -611,-686 -712,-1062 -25,-73 -31,-153 -15,-234 224,-1144 782,-1914 1465,-2325 412,-248 868,-363 1325,-350 455,13 906,153 1311,414zm-5138 2674c953,564 1716,1494 1981,2738l-1 0c7,35 11,71 10,107 -7,252 -217,451 -470,444 -960,-29 -1746,150 -2470,459 -738,315 -1430,776 -2173,1293l0 0c-6,4 -13,9 -20,13 -215,134 -497,68 -631,-147 -195,-314 -560,-704 -916,-1085 -504,-539 -993,-1061 -1119,-1489l0 0c-23,-77 -25,-161 -4,-244 282,-1090 916,-1836 1712,-2269 620,-337 1334,-480 2050,-442 708,37 1422,249 2050,622zm18438 -3442c-767,-613 -1794,-1015 -2859,-1317 -110,-29 -209,-98 -273,-201 -134,-215 -68,-497 147,-631 1287,-801 2856,-1210 4203,-1155 754,31 1445,205 1994,536 584,352 1005,872 1176,1575 159,653 91,1453 -282,2406 -202,517 -561,921 -942,1204 -501,372 -1081,542 -1429,497 -219,-20 -397,-196 -414,-422 -83,-1113 -588,-1907 -1321,-2492zm-7063 1151l0 -1c-130,-70 -224,-203 -239,-361 -23,-251 163,-474 414,-496 550,-51 1058,-202 1540,-345 1306,-389 2444,-727 4076,610 468,383 935,920 1195,1543 219,525 292,1107 106,1711 -69,225 -177,459 -315,682 -256,416 -626,820 -1055,1088 -470,294 -1007,428 -1552,259 -138,-43 -273,-103 -401,-182l1 -1c-93,-57 -167,-148 -200,-262 -191,-2295 -1499,-3130 -3571,-4245zm-3983 2413c-92,-73 -156,-182 -170,-308 -28,-251 154,-478 405,-505 405,-45 807,-182 1208,-319 932,-318 1864,-636 3118,-102l0 0 7 3c562,250 1004,531 1352,880 355,356 604,775 774,1294 42,97 75,185 101,266 266,838 125,1734 -249,2493 -364,737 -958,1352 -1620,1659 -13,7 -27,14 -40,20 -85,38 -170,70 -255,97 -84,27 -192,43 -309,46 -183,5 -401,-27 -590,-114 -232,-106 -431,-286 -520,-567 -25,-79 -40,-167 -42,-266 417,-1667 -1905,-3694 -3168,-4577zm-2296 5176c-553,-855 -1284,-1522 -2205,-2000 -83,-41 -154,-108 -201,-196 -118,-224 -32,-500 192,-618 360,-190 702,-404 1026,-606 1462,-912 2594,-1618 4297,-93 525,470 1024,1013 1359,1678 343,679 511,1471 359,2416 -5,46 -17,93 -36,137 -726,1647 -1775,2201 -2893,2791l-61 32c-46,26 -96,44 -151,53 -249,42 -485,-127 -527,-376 -212,-1273 -595,-2346 -1159,-3219zm-8616 1094l0 0c-78,-53 -141,-131 -174,-227 -83,-239 43,-499 281,-582 342,-119 761,-304 1212,-502 537,-236 1121,-493 1750,-711 2173,-754 4494,-898 5647,2365 13,30 24,61 31,94 214,986 19,1931 -421,2730 -310,562 -741,1052 -1236,1431 -499,382 -1064,655 -1636,779 -693,150 -973,87 -1592,-254l0 -1c-164,-90 -263,-277 -231,-473 254,-1569 -2027,-4162 -3629,-4648zm-2648 4830c-595,-717 -1428,-1307 -2456,-1609 -154,-39 -283,-158 -328,-321 -67,-243 76,-495 319,-563 468,-130 787,-464 1117,-811 613,-643 1258,-1320 2817,-1329 60,-1 121,9 180,32 1041,415 1985,1023 2692,1824 646,732 1092,1621 1234,2667l0 0c3,19 4,38 4,57 5,557 -130,1045 -333,1462 -260,535 -635,952 -967,1244l-11 10c-360,311 -837,476 -1341,526 -533,52 -1107,-26 -1597,-197l0 0c-176,-61 -303,-227 -307,-425 -14,-859 -375,-1785 -1023,-2567zm-8217 1650c637,15 1243,163 1776,484 368,222 608,427 783,695 174,265 263,560 335,966 167,941 -51,1710 -453,2324 -525,802 -1364,1320 -2047,1608 -76,38 -164,55 -255,45 -251,-29 -432,-256 -403,-507 143,-1217 -16,-2122 -370,-2820 -350,-691 -902,-1197 -1547,-1613l0 0c-83,-53 -150,-134 -185,-234 -83,-239 43,-499 281,-582 693,-242 1405,-380 2083,-364zm-3056 1551c651,0 1239,280 1664,732 418,445 676,1057 676,1730 0,673 -259,1285 -676,1730 -425,452 -1013,732 -1664,732 -651,0 -1239,-280 -1664,-732 -418,-445 -676,-1057 -676,-1730 0,-673 259,-1285 676,-1730 425,-452 1013,-732 1664,-732zm45393 -26543c22,143 39,282 53,417 21,57 46,116 75,177 188,391 544,816 1024,1187 8,5 16,12 24,18 492,375 1005,611 1437,690 310,56 553,35 664,-77 24,-155 34,-314 29,-476 -23,-73 -55,-151 -94,-232 -188,-391 -544,-816 -1024,-1187 -8,-5 -16,-12 -24,-18 -492,-375 -1005,-611 -1437,-690 -330,-60 -585,-32 -685,100 -20,26 -34,56 -43,91zm10 1982c-102,548 -302,1002 -581,1378 -422,570 -1011,946 -1707,1193 173,200 325,412 458,637 175,297 315,615 419,957 150,440 279,869 390,1286 431,-522 1011,-1021 1617,-1543 868,-748 1795,-1545 2306,-2460 -147,1 -301,-13 -460,-43 -561,-102 -1207,-392 -1808,-844l0 0c-17,-12 -34,-24 -49,-38 -214,-166 -410,-342 -584,-524zm-1474 8255c-500,1820 -1654,3385 -3019,4616 -1989,1793 -4460,2886 -6011,3018 -140,365 -289,722 -447,1070 -2935,6480 -9233,11077 -16411,13457 -6387,2118 -13482,2484 -19525,861 3110,1891 6364,3521 9722,4482 4532,1298 9267,1380 14113,-764 2811,-1244 5912,-3383 8555,-6272 2229,-2437 4130,-5407 5253,-8822l1 0c31,-97 95,-183 187,-242 8,-6 16,-11 24,-17 3144,-1972 8002,-5021 7558,-11388zm-813 -3821c-28,-82 -55,-164 -85,-246 -69,-181 -152,-352 -247,-514 -512,-868 -1419,-1509 -2751,-2046 -2179,-879 -4223,-671 -6114,125 -1930,813 -3717,2240 -5331,3761 -90,89 -216,141 -352,132 -7653,-487 -14442,2255 -19840,6197 -7241,5289 -11970,12711 -12932,17410 403,175 811,338 1224,488 6269,2292 14094,2119 21066,-193 6952,-2305 13042,-6736 15863,-12966 194,-428 370,-859 529,-1293l0 0c64,-176 233,-302 431,-301 1329,9 3749,-1024 5719,-2799 1455,-1312 2643,-3023 2921,-5005 155,-1107 125,-2007 -102,-2750z"/></g></svg>
