<svg xmlns="http://www.w3.org/2000/svg" xmlns:xlink="http://www.w3.org/1999/xlink" xml:space="preserve" version="1.1" style="shape-rendering:geometricPrecision;text-rendering:geometricPrecision;image-rendering:optimizeQuality;" viewBox="0 0 231 213.75" x="0px" y="0px" fill-rule="evenodd" clip-rule="evenodd"><defs><style type="text/css">

    .fil0 {fill:black}

  </style></defs><g><path class="fil0" d="M23 112c-6,5 -15,3 -18,-4 6,-5 15,-3 18,4z"/><path class="fil0" d="M28 111c-7,0 -12,-8 -11,-16 8,1 13,8 11,16z"/><path class="fil0" d="M36 114c-6,-4 -8,-13 -4,-20 7,4 9,14 4,20z"/><path class="fil0" d="M30 118c-3,8 -12,10 -18,6 3,-8 11,-11 18,-6z"/><path class="fil0" d="M40 118c1,8 -4,16 -12,15 -1,-8 5,-15 12,-15z"/><path class="fil0" d="M52 124c2,8 -3,16 -11,16 -1,-8 4,-16 11,-16z"/><path class="fil0" d="M57 54c-7,-3 -10,-12 -6,-19 7,3 10,12 6,19z"/><path class="fil0" d="M61 58c-4,-7 -1,-16 6,-19 4,7 1,17 -6,19z"/><path class="fil0" d="M63 67c0,-8 6,-15 13,-14 1,8 -5,15 -13,14z"/><path class="fil0" d="M57 63c-7,2 -14,-5 -14,-13 7,-1 14,5 14,13z"/><path class="fil0" d="M62 72c-6,6 -14,4 -18,-3 5,-5 14,-4 18,3z"/><path class="fil0" d="M68 84c-4,7 -13,8 -18,2 4,-7 13,-8 18,-2z"/><path class="fil0" d="M92 37c-7,-3 -10,-12 -6,-19 7,3 10,12 6,19z"/><path class="fil0" d="M96 41c-4,-7 -1,-16 6,-19 3,7 1,17 -6,19z"/><path class="fil0" d="M97 54c-3,-7 1,-16 9,-17 2,7 -2,16 -9,17z"/><path class="fil0" d="M91 46c-7,2 -14,-5 -13,-13 7,-1 14,5 13,13z"/><path class="fil0" d="M80 64c-2,-8 4,-15 11,-16 2,8 -4,16 -11,16z"/><path class="fil0" d="M144 33c-7,-3 -10,-12 -6,-19 7,3 10,12 6,19z"/><path class="fil0" d="M147 37c-3,-7 0,-16 6,-19 4,7 1,16 -6,19z"/><path class="fil0" d="M149 46c-1,-8 5,-16 12,-15 1,8 -5,15 -12,15z"/><path class="fil0" d="M143 42c-7,2 -14,-5 -14,-13 8,-1 14,5 14,13z"/><path class="fil0" d="M145 49c-5,5 -14,4 -17,-3 5,-6 14,-4 17,3z"/><path class="fil0" d="M183 51c-5,-6 -2,-16 4,-19 5,6 2,16 -4,19z"/><path class="fil0" d="M186 55c0,-9 6,-15 14,-13 0,8 -7,14 -14,13z"/><path class="fil0" d="M186 61c4,-8 12,-9 18,-4 -4,7 -13,9 -18,4z"/><path class="fil0" d="M168 54c-1,-8 4,-15 12,-15 1,8 -4,15 -12,15z"/><path class="fil0" d="M168 67c8,1 14,-6 14,-14 -7,-1 -14,5 -14,14z"/><path class="fil0" d="M214 88c-3,-8 2,-16 9,-17 3,8 -2,16 -9,17z"/><path class="fil0" d="M214 92c3,-7 12,-8 17,-3 -3,7 -12,9 -17,3z"/><path class="fil0" d="M209 98c6,-4 14,-1 17,6 -6,5 -15,2 -17,-6z"/><path class="fil0" d="M204 98c-4,-6 -2,-15 4,-18 4,6 2,15 -4,18z"/><path class="fil0" d="M196 84c-7,-4 -9,-13 -4,-20 6,4 8,13 4,20z"/><path class="fil0" d="M48 93c-7,2 -14,-4 -14,-12 7,-2 14,4 14,12z"/><path class="fil0" d="M45 72c-7,5 -15,1 -17,-7 6,-4 14,0 17,7z"/><path class="fil0" d="M34 75c-3,8 -11,11 -17,6 2,-8 11,-10 17,-6z"/><path class="fil0" d="M33 91c-6,5 -15,3 -18,-4 6,-5 15,-3 18,4z"/><path class="fil0" d="M43 63c-7,0 -13,-8 -11,-16 7,0 13,8 11,16z"/><path class="fil0" d="M29 70c-5,5 -14,4 -18,-3 5,-6 14,-4 18,3z"/><path class="fil0" d="M33 63c-7,1 -14,-5 -14,-13 8,-2 14,4 14,13z"/><path class="fil0" d="M17 93c-5,5 -14,2 -17,-5 6,-5 14,-3 17,5z"/><path class="fil0" d="M75 46c-7,-2 -9,-12 -6,-19 7,3 10,12 6,19z"/><path class="fil0" d="M65 38c-7,1 -14,-5 -13,-13 7,-2 13,5 13,13z"/><path class="fil0" d="M83 31c-7,2 -14,-5 -13,-13 7,-1 14,5 13,13z"/><path class="fil0" d="M107 36c-4,-7 -1,-16 6,-19 3,7 0,16 -6,19z"/><path class="fil0" d="M95 25c-5,-6 -4,-16 3,-20 5,6 3,16 -3,20z"/><path class="fil0" d="M124 35c-7,-2 -10,-11 -6,-18 7,2 10,12 6,18z"/><path class="fil0" d="M123 49c-7,1 -14,-5 -14,-13 7,-2 14,5 14,13z"/><path class="fil0" d="M148 57c-4,7 -13,8 -18,2 4,-7 12,-8 18,-2z"/><path class="fil0" d="M116 78c8,2 14,-5 14,-13 -7,-1 -14,5 -14,13z"/><path class="fil0" d="M141 79c-1,9 5,16 13,15 0,-9 -6,-15 -13,-15z"/><path class="fil0" d="M157 85c-7,-3 -10,-12 -6,-19 6,2 9,12 6,19z"/><path class="fil0" d="M156 60c-4,-7 -2,-16 5,-19 4,6 2,16 -5,19z"/><path class="fil0" d="M166 46c-5,-6 -5,-16 1,-20 6,5 5,15 -1,20z"/><path class="fil0" d="M191 109c7,-3 14,3 14,11 -7,2 -14,-3 -14,-11z"/><path class="fil0" d="M178 89c-2,-8 3,-16 10,-17 2,8 -3,16 -10,17z"/><path class="fil0" d="M202 71c-3,-8 2,-16 10,-16 2,7 -3,16 -10,16z"/><path class="fil0" d="M200 78c2,-7 10,-11 17,-7 -2,7 -10,11 -17,7z"/><path class="fil0" d="M193 100c7,-4 15,0 17,8 -7,4 -15,-1 -17,-8z"/><path class="fil0" d="M80 79c-2,-8 3,-16 10,-16 2,8 -3,16 -10,16z"/><path class="fil0" d="M116 89c6,3 14,-1 16,-9 -7,-4 -15,1 -16,9z"/><path class="fil0" d="M128 29c-4,-7 -1,-16 6,-19 3,7 0,16 -6,19z"/><path class="fil0" d="M125 19c-7,-3 -10,-12 -6,-19 6,3 9,12 6,19z"/><path class="fil0" d="M105 21c-5,-6 -2,-16 4,-19 5,7 2,16 -4,19z"/><path class="fil0" d="M55 107c-3,5 -10,6 -14,1 3,-5 10,-6 14,-1z"/><path class="fil0" d="M70 93c-2,6 -8,9 -13,6 2,-6 8,-9 13,-6z"/><path class="fil0" d="M71 117c-6,-2 -13,2 -14,9 6,3 13,-1 14,-9z"/><path class="fil0" d="M45 48c-7,-3 -8,-13 -4,-19 7,3 9,13 4,19z"/><path class="fil0" d="M173 38c-3,-8 2,-16 10,-17 2,8 -3,16 -10,17z"/><path class="fil0" d="M159 29c-5,-6 -2,-16 4,-19 5,7 2,16 -4,19z"/><path class="fil0" d="M146 21c-4,-7 -2,-16 5,-20 4,7 2,16 -5,20z"/><path class="fil0" d="M199 52c2,-7 10,-11 17,-7 -3,8 -11,12 -17,7z"/><path class="fil0" d="M191 42c-2,-8 3,-16 10,-17 2,8 -3,16 -10,17z"/><path class="fil0" d="M166 104c-4,-6 -2,-14 4,-16 4,5 2,13 -4,16z"/><path class="fil0" d="M181 99c1,-7 8,-11 14,-8 -2,7 -8,11 -14,8z"/><path class="fil0" d="M77 92c-1,-7 4,-13 10,-13 1,7 -4,13 -10,13z"/><path class="fil0" d="M67 77c-1,-6 3,-12 9,-12 1,6 -3,12 -9,12z"/><path class="fil0" d="M98 69c-1,-7 4,-13 9,-13 2,7 -3,13 -9,13z"/><path class="fil0" d="M117 97c5,4 12,2 14,-4 -4,-4 -11,-2 -14,4z"/><path class="fil0" d="M161 108c-4,-3 -4,-10 0,-13 3,3 3,10 0,13z"/><path class="fil0" d="M170 77c6,0 11,-5 11,-11 -6,-1 -11,4 -11,11z"/><path class="fil0" d="M175 105c3,-4 9,-4 12,1 -3,4 -9,3 -12,-1z"/><path class="fil0" d="M179 112c5,-3 12,0 13,7 -5,3 -12,-1 -13,-7z"/><path class="fil0" d="M102 80c-1,-6 3,-12 9,-12 1,6 -3,12 -9,12z"/><path class="fil0" d="M117 59c1,-7 -3,-13 -9,-13 -1,7 3,13 9,13z"/><path class="fil0" d="M120 62c-1,-6 3,-12 9,-12 1,6 -3,12 -9,12z"/><path class="fil0" d="M162 77c-4,-4 -4,-10 0,-14 4,4 4,10 0,14z"/><path class="fil0" d="M160 91c-1,-6 4,-12 10,-12 1,6 -4,12 -10,12z"/><path class="fil0" d="M78 120c1,8 -4,15 -12,15 -1,-8 5,-15 12,-15z"/><path class="fil0" d="M61 112c-6,-3 -13,1 -14,9 6,2 13,-2 14,-9z"/><path class="fil0" d="M83 103c-2,-7 1,-14 7,-14 2,6 -1,13 -7,14z"/><path class="fil0" d="M130 102c-1,-6 5,-11 11,-10 0,7 -5,12 -11,10z"/><path class="fil0" d="M130 114c-1,-7 5,-12 11,-10 0,6 -6,11 -11,10z"/><path class="fil0" d="M125 112c0,-6 -4,-12 -9,-10 -1,6 4,12 9,10z"/><path class="fil0" d="M100 105c-4,-5 -10,-6 -13,-2 3,5 10,7 13,2z"/><path class="fil0" d="M50 99c-3,-5 -10,-6 -13,-2 3,5 10,6 13,2z"/><path class="fil0" d="M165 113c3,-4 9,-4 12,0 -3,4 -9,4 -12,0z"/><path class="fil0" d="M125 131c5,-3 10,-6 15,-10 19,-5 31,-10 41,-27 0,0 -1,-1 -2,0 -10,15 -17,18 -36,23 10,-11 14,-23 18,-36 0,-1 -1,-1 -1,0 0,0 -6,22 -20,35 -3,4 -7,6 -11,9 -1,-8 -1,-15 0,-21 0,-1 -1,-2 -1,-1 -1,7 -3,14 -1,23 -1,1 -2,1 -4,2 -5,-10 -9,-19 -9,-26 -3,-20 4,-41 4,-41 1,-1 0,-2 0,-1 -5,13 -8,26 -7,40 -12,-16 -16,-24 -15,-43 0,-1 -1,-1 -1,0 -2,19 5,32 16,49 1,3 2,5 3,8 -7,-5 -13,-12 -16,-19 0,-1 -1,-1 -1,0 4,8 8,16 18,23 2,6 5,11 7,16 -7,-3 -23,-9 -32,-18 -13,-13 -20,-35 -20,-35 0,-1 -1,-1 -1,0 4,13 9,25 18,36 -19,-5 -26,-8 -36,-23 -1,-1 -2,0 -1,0 9,17 21,22 40,27 11,9 23,15 34,18 6,9 -6,16 -15,22l-62 10 146 0 -69 -10c6,-8 12,-14 1,-30z"/></g></svg>
